<?xml version="1.0" standalone="no"?>
<!DOCTYPE svg PUBLIC "-//W3C//DTD SVG 20010904//EN"
 "http://www.w3.org/TR/2001/REC-SVG-20010904/DTD/svg10.dtd">
<svg version="1.0" xmlns="http://www.w3.org/2000/svg"
 width="175.000000pt" height="175.000000pt" viewBox="0 0 175.000000 175.000000"
 preserveAspectRatio="xMidYMid meet">
<metadata>
Created by potrace 1.14, written by Peter Selinger 2001-2017
</metadata>
<g transform="translate(0.000000,175.000000) scale(0.100000,-0.100000)"
fill="#000000" stroke="none">
<path d="M268 1733 c-15 -18 -29 -46 -34 -70 -4 -20 23 -36 30 -18 3 8 0 15
-6 15 -7 0 -7 4 -1 13 6 6 15 26 21 42 9 26 11 27 11 8 1 -13 5 -23 10 -23 6
0 6 -12 2 -27 -4 -16 -6 -33 -4 -39 2 -6 -3 -17 -12 -24 -10 -8 -15 -9 -15 -1
0 6 -5 11 -11 11 -5 0 -8 -4 -5 -9 11 -16 -5 -40 -22 -34 -12 5 -14 2 -9 -11
5 -13 3 -17 -6 -13 -9 3 -12 -5 -9 -32 1 -20 3 -49 3 -66 1 -22 2 -25 8 -12 4
10 11 19 16 20 6 1 9 6 7 11 -5 15 9 46 19 41 12 -8 11 2 -1 26 -6 10 -8 19
-4 19 11 0 33 -34 34 -52 0 -9 4 -18 9 -20 4 -1 11 -13 15 -24 6 -18 3 -21
-18 -17 -24 5 -25 4 -13 -26 9 -24 9 -36 -1 -51 -6 -11 -12 -32 -12 -47 0 -21
-3 -24 -10 -13 -14 23 -21 7 -10 -28 5 -20 5 -30 -1 -27 -5 4 -9 0 -10 -7 0
-7 -8 5 -18 27 -10 22 -16 49 -13 60 l4 20 -15 -20 c-9 -11 -17 -29 -17 -39 0
-11 -3 -16 -7 -12 -11 10 -12 36 -2 36 5 0 8 17 8 38 -1 36 -2 36 -8 7 -5 -24
-8 -27 -16 -15 -5 8 -10 21 -11 28 -5 29 -13 23 -20 -14 -7 -36 -8 -37 -14
-14 -4 14 -2 40 3 58 11 45 1 54 -12 11 -5 -19 -10 -28 -10 -20 -1 8 -10 3
-22 -14 -18 -22 -22 -43 -25 -127 -2 -55 1 -109 7 -119 6 -11 6 -19 0 -19 -5
0 -14 -14 -20 -30 -14 -42 22 -117 61 -126 15 -4 35 -16 45 -27 18 -21 18 -21
-7 -4 -27 18 -40 21 -40 9 0 -11 56 -43 63 -35 4 3 5 -7 3 -23 -2 -16 0 -38 5
-49 8 -22 8 -22 15 15 6 31 27 54 24 25 -4 -40 -1 -48 14 -33 7 8 16 43 19 78
4 57 3 62 -9 45 -8 -10 -14 -14 -14 -8 0 6 6 16 14 22 8 7 17 24 21 38 3 15
19 42 35 59 28 33 37 62 57 202 6 42 6 62 -1 62 -8 0 -8 3 -1 8 6 4 15 18 21
32 9 20 6 30 -13 59 -13 19 -21 36 -19 39 8 7 36 -25 36 -42 0 -9 5 -16 11
-16 5 0 7 5 4 10 -3 6 -1 10 4 10 6 0 11 -5 11 -11 0 -5 5 -7 11 -3 8 4 9 -17
6 -72 l-5 -79 15 50 c8 28 16 59 17 70 2 11 7 20 12 21 5 0 17 4 27 7 9 4 23
9 30 11 24 7 125 -21 157 -44 39 -28 39 -16 -2 22 -26 24 -29 31 -17 40 12 8
12 10 0 15 -7 3 -22 14 -32 24 -16 16 -17 23 -8 41 12 22 12 22 40 -12 16 -19
29 -38 29 -42 0 -4 4 -8 10 -8 5 0 0 20 -12 45 -12 24 -19 47 -16 50 3 3 23
-4 44 -16 l39 -22 -32 29 c-31 27 -32 30 -18 54 8 14 14 20 15 13 0 -6 12 -25
26 -42 14 -17 27 -37 28 -43 3 -17 29 -58 37 -58 4 0 5 10 3 23 -4 20 -4 20 5
2 4 -11 7 -23 4 -27 -5 -10 17 -51 24 -44 3 3 0 14 -8 23 -13 17 -13 17 7 0
11 -9 23 -15 26 -12 3 3 18 -13 33 -35 16 -23 37 -46 47 -51 10 -6 16 -14 13
-20 -4 -5 -3 -8 2 -7 5 2 22 -11 38 -28 17 -16 24 -22 16 -12 -20 26 -5 35 21
12 12 -10 18 -13 13 -5 -8 13 -8 13 53 -4 12 -3 22 -12 22 -20 0 -18 -29 -24
-60 -13 -18 7 -22 6 -14 -2 6 -6 23 -12 38 -14 14 -1 29 -6 33 -9 3 -4 12 -7
18 -7 7 0 34 -20 61 -45 26 -25 51 -45 55 -45 4 0 7 -9 6 -20 -1 -18 -3 -19
-25 -4 -14 9 -22 12 -18 6 3 -6 -24 -12 -69 -17 -64 -6 -79 -11 -103 -35 -15
-15 -37 -30 -49 -34 -18 -6 -21 -13 -18 -47 6 -61 24 -119 37 -119 9 0 9 3 0
12 -7 7 -12 19 -12 28 0 10 3 11 8 4 13 -20 97 -40 86 -21 -4 7 4 2 18 -11 29
-26 148 -47 134 -23 -5 7 -14 10 -22 7 -8 -3 -14 -1 -14 4 0 6 -7 10 -15 10
-9 0 -32 7 -53 16 l-37 15 35 15 c29 13 45 13 95 3 33 -6 67 -13 75 -14 15 -2
47 -14 64 -23 5 -3 6 0 2 6 -5 8 3 12 24 12 24 0 31 4 27 14 -3 8 -1 17 6 20
9 3 9 5 0 5 -7 1 -13 8 -13 17 0 10 6 14 15 10 16 -6 16 10 0 32 -27 38 -109
122 -119 122 -6 0 -11 11 -11 25 0 14 3 25 8 25 4 0 7 -10 7 -22 0 -19 2 -20
10 -8 9 13 12 13 21 -3 6 -9 14 -15 20 -12 5 4 9 -1 9 -10 0 -9 5 -13 10 -10
6 4 9 3 8 -2 -3 -12 25 -53 38 -53 6 0 16 10 23 23 6 12 9 14 7 5 -3 -10 0
-21 7 -25 8 -5 12 -36 13 -83 0 -96 15 -245 24 -261 5 -7 16 -9 26 -5 16 6 16
7 -2 21 -16 13 -16 14 -1 9 9 -3 17 -1 17 5 0 6 6 11 14 11 10 0 14 10 14 29
-1 32 24 79 48 88 8 3 14 15 14 26 0 12 12 34 28 50 l27 28 0 197 c0 202 -5
239 -37 281 -19 25 -25 91 -8 91 6 0 1 9 -11 21 -12 12 -19 29 -16 40 3 11 0
19 -6 19 -7 0 -13 15 -14 33 -2 30 -1 31 12 13 13 -18 14 -17 12 12 -1 18 -5
32 -9 32 -5 0 -7 6 -5 13 1 9 -113 12 -540 14 -553 2 -566 1 -534 -32 14 -15
25 -59 13 -51 -6 4 -9 -9 -6 -36 4 -42 4 -42 -6 -10 -6 17 -13 32 -16 32 -12
0 9 -89 31 -127 13 -24 20 -43 15 -43 -5 0 -13 6 -17 14 -7 12 -10 11 -23 -2
-13 -14 -12 -15 2 -10 10 4 28 -4 49 -23 18 -16 28 -29 23 -29 -6 0 -15 5 -22
12 -7 7 -12 9 -12 5 0 -4 -12 -1 -27 6 -16 8 -33 13 -39 10 -6 -2 -26 3 -45
11 -19 9 -29 15 -22 16 6 0 18 3 27 6 10 4 16 1 16 -10 0 -10 6 -13 15 -9 14
5 13 7 -3 19 -14 9 -17 21 -14 44 4 25 7 28 18 19 12 -10 13 -9 8 5 -3 9 -28
26 -55 37 -45 20 -53 30 -52 66 1 7 -3 11 -7 8 -4 -3 -10 1 -13 9 -4 9 0 12
13 9 10 -3 21 0 24 6 4 6 2 11 -3 11 -6 0 -11 7 -11 16 0 14 3 14 15 4 16 -13
20 -40 6 -40 -10 0 -8 -27 3 -52 5 -10 14 -15 24 -11 15 4 15 3 2 -6 -13 -9
-13 -11 3 -11 14 0 17 9 17 45 0 25 5 45 10 45 6 0 8 -11 4 -26 -11 -42 14
-20 26 24 5 20 10 40 10 45 0 4 -51 7 -113 7 -96 0 -116 -3 -129 -17z m1312
-28 c0 -8 -2 -15 -4 -15 -2 0 -6 7 -10 15 -3 8 -1 15 4 15 6 0 10 -7 10 -15z
m-994 -42 c-11 -11 -24 9 -18 29 l5 22 9 -24 c5 -12 6 -25 4 -27z m-248 5 c16
-16 15 -29 0 -25 -8 1 -12 -7 -11 -18 2 -20 1 -20 -13 0 -13 17 -13 21 1 31
12 9 13 13 3 17 -7 3 -8 6 -2 6 5 1 15 -4 22 -11z m243 -18 c10 -6 19 -15 19
-21 0 -6 -4 -7 -10 -4 -5 3 -10 -1 -10 -10 0 -24 -17 -9 -22 20 -6 28 -4 29
23 15z m333 -72 c4 -19 2 -28 -6 -28 -9 0 -8 -3 2 -10 13 -8 13 -10 -2 -10
-22 0 -39 57 -25 84 11 22 19 12 31 -36z m-269 22 c10 -11 16 -20 13 -20 -3 0
-13 9 -23 20 -10 11 -16 20 -13 20 3 0 13 -9 23 -20z m137 -22 c-8 -8 -9 -4
-5 13 4 13 8 18 11 10 2 -7 -1 -18 -6 -23z m-558 -74 c3 -8 2 -12 -4 -9 -6 3
-10 10 -10 16 0 14 7 11 14 -7z m693 -16 c-3 -8 -6 -5 -6 6 -1 11 2 17 5 13 3
-3 4 -12 1 -19z m71 -67 c-1 -16 2 -34 7 -41 5 -8 1 -11 -11 -8 -14 2 -20 14
-22 45 -3 35 0 42 12 37 8 -3 14 -17 14 -33z m42 -38 c0 -8 4 -12 9 -9 5 3 11
-4 14 -16 4 -15 3 -18 -5 -10 -8 8 -16 8 -23 2 -13 -11 -13 -11 -21 65 l-5 50
16 -34 c8 -18 15 -40 15 -48z m-920 -73 c0 -5 -5 -10 -11 -10 -5 0 -7 5 -4 10
3 6 8 10 11 10 2 0 4 -4 4 -10z m17 -32 c-3 -8 -6 -5 -6 6 -1 11 2 17 5 13 3
-3 4 -12 1 -19z m61 -44 c-3 -14 -5 -12 -10 9 -3 19 -2 25 4 19 6 -6 8 -18 6
-28z m-118 2 c0 -3 -4 -8 -10 -11 -5 -3 -10 -1 -10 4 0 6 5 11 10 11 6 0 10
-2 10 -4z m90 -148 c0 -4 -6 -8 -14 -8 -8 0 -17 4 -20 8 -2 4 4 8 15 8 10 0
19 -4 19 -8z m93 -17 c-12 -10 -20 -21 -17 -24 3 -3 -4 -10 -15 -17 -14 -7
-21 -7 -21 0 0 5 4 10 10 10 5 0 7 7 4 15 -4 10 0 15 14 15 12 0 24 5 27 10 3
6 9 10 13 10 4 -1 -3 -9 -15 -19z m-92 -10 c-8 -5 -20 -7 -28 -4 -21 8 -15 13
15 13 20 0 23 -3 13 -9z m1036 -67 c-3 -3 -12 -4 -19 -1 -8 3 -5 6 6 6 11 1
17 -2 13 -5z m-147 -59 c8 0 15 -10 16 -22 1 -23 -7 -22 -38 5 -20 17 -24 37
-5 25 6 -4 19 -8 27 -8z"/>
<path d="M170 1638 c-26 -40 -50 -91 -50 -107 0 -9 16 12 36 47 34 60 45 106
14 60z"/>
<path d="M700 1451 c0 -21 139 -111 170 -111 7 0 -14 14 -48 31 -34 16 -75 43
-92 59 -16 15 -30 25 -30 21z"/>
<path d="M201 1383 c-10 -26 -10 -27 4 -9 8 11 15 23 15 28 0 15 -7 8 -19 -19z"/>
<path d="M520 1138 c0 -5 -10 -7 -22 -3 -22 6 -22 5 -5 -9 17 -13 16 -15 -17
-27 -19 -7 -33 -16 -31 -19 3 -4 -8 -13 -23 -19 -24 -11 -25 -14 -9 -22 10 -6
26 -7 37 -4 12 4 20 2 20 -6 0 -8 4 -8 13 -1 17 14 133 36 152 28 9 -3 13 -10
10 -16 -4 -6 -10 -8 -15 -5 -9 5 -160 -21 -168 -29 -1 -2 25 -7 60 -11 101
-11 111 -13 153 -27 23 -8 57 -11 80 -8 36 5 38 6 20 17 -24 15 -6 17 29 3 16
-6 27 -6 31 0 7 12 -13 51 -34 67 -14 10 -14 12 2 18 9 4 23 5 31 2 7 -3 18
-1 24 5 14 14 -13 42 -33 34 -19 -7 -47 3 -39 15 3 5 3 9 1 9 -2 0 -28 4 -58
10 -39 7 -71 6 -116 -3 -34 -8 -60 -10 -58 -6 3 4 -4 9 -15 12 -11 3 -20 1
-20 -5z m0 -43 c-7 -8 -17 -15 -23 -15 -6 0 -2 7 9 15 25 19 30 19 14 0z m155
-55 c3 -5 1 -10 -4 -10 -6 0 -11 5 -11 10 0 6 2 10 4 10 3 0 8 -4 11 -10z m15
-50 c0 -5 -2 -10 -4 -10 -3 0 -8 5 -11 10 -3 6 -1 10 4 10 6 0 11 -4 11 -10z"/>
<path d="M690 930 c-8 -5 -28 -10 -45 -10 -17 0 -25 -4 -19 -8 7 -4 41 -5 75
-3 35 3 53 7 40 9 -19 3 -21 6 -10 13 11 7 10 9 -6 9 -11 0 -27 -5 -35 -10z"/>
<path d="M1268 863 c6 -2 18 -2 25 0 6 3 1 5 -13 5 -14 0 -19 -2 -12 -5z"/>
<path d="M1092 694 c2 -24 14 -32 20 -14 2 6 18 -4 36 -23 30 -31 31 -36 20
-58 -12 -23 -28 -26 -67 -13 -11 4 -12 7 -3 16 18 18 14 32 -4 17 -15 -12 -16
-11 -10 9 l7 22 -46 -20 c-25 -11 -43 -15 -39 -9 5 8 1 8 -13 0 -11 -6 -23 -7
-27 -4 -3 3 -6 1 -6 -5 0 -17 -89 -15 -140 3 -23 8 -46 15 -51 15 -17 0 3 -28
29 -41 36 -19 64 -50 58 -66 -4 -9 4 -13 23 -13 16 0 32 6 34 13 3 7 6 4 6 -6
1 -12 5 -15 13 -11 7 5 26 9 43 11 50 4 74 9 81 16 4 4 13 2 21 -4 10 -9 13
-8 13 4 0 12 10 16 43 15 23 -1 52 2 65 7 16 5 22 3 22 -6 0 -19 -37 -42 -45
-28 -4 5 -14 9 -23 7 -10 -1 -24 2 -32 6 -11 7 -10 3 3 -11 9 -11 14 -23 10
-28 -5 -4 -2 -5 5 -1 7 4 10 12 7 17 -3 5 0 6 8 3 32 -12 12 -29 -37 -31 -28
-1 -69 -4 -91 -8 -74 -13 -209 -13 -300 -1 -86 12 -125 11 -125 -3 0 -8 58
-54 88 -70 21 -11 22 -10 22 25 0 30 3 35 18 29 9 -4 28 -8 42 -10 13 -1 26
-7 27 -11 5 -14 215 -5 230 9 14 14 25 6 20 -14 -4 -16 -3 -18 9 -8 23 19 16
-5 -8 -26 -13 -11 -34 -21 -47 -22 -49 -4 -38 -18 12 -15 66 4 93 17 139 68
32 35 43 41 75 41 41 0 106 22 86 30 -7 2 -10 10 -7 18 7 16 -140 165 -184
188 -31 15 -32 15 -30 -9z"/>
<path d="M190 610 l-25 -7 28 -12 c37 -14 37 -14 37 9 0 21 -2 22 -40 10z"/>
<path d="M508 558 c-21 -26 -23 -48 -4 -48 16 0 31 17 40 48 10 29 -13 29 -36
0z"/>
<path d="M205 551 c2 -5 -5 -17 -15 -29 -20 -21 -20 -21 -1 -32 39 -20 52 -13
49 27 -2 25 -8 37 -21 39 -9 1 -15 -1 -12 -5z"/>
<path d="M231 411 c-9 -6 -10 -11 -2 -15 6 -4 9 -11 6 -16 -5 -9 13 -25 20
-18 3 2 1 16 -3 31 -5 19 -11 24 -21 18z"/>
<path d="M1320 390 c0 -5 5 -10 10 -10 6 0 10 5 10 10 0 6 -4 10 -10 10 -5 0
-10 -4 -10 -10z"/>
<path d="M214 379 c-3 -6 4 -21 17 -33 l23 -21 -18 22 c-10 12 -15 27 -11 32
3 6 4 11 1 11 -3 0 -8 -5 -12 -11z"/>
<path d="M800 370 c0 -5 5 -10 11 -10 5 0 7 5 4 10 -3 6 -8 10 -11 10 -2 0 -4
-4 -4 -10z"/>
<path d="M863 359 c-11 -5 2 -8 35 -8 28 -1 52 1 52 3 0 8 -69 12 -87 5z"/>
<path d="M1298 346 c-10 -7 -18 -16 -18 -20 0 -16 -69 -75 -74 -63 -2 7 -5 4
-5 -5 -1 -10 -5 -18 -11 -18 -5 0 -7 -7 -4 -15 4 -8 1 -22 -6 -30 -6 -8 -8
-20 -4 -26 5 -8 2 -10 -8 -7 -11 5 -14 1 -11 -17 4 -18 -2 -26 -28 -39 -25
-12 -35 -13 -43 -5 -8 9 -7 10 3 4 10 -5 12 -4 7 4 -9 14 -26 5 -26 -14 0 -8
-11 -17 -25 -21 -14 -3 -25 -10 -25 -16 0 -5 -5 -6 -12 -2 -6 4 -8 3 -4 -4 3
-6 -7 -17 -24 -26 -17 -8 -28 -11 -25 -6 3 5 -15 7 -41 5 -25 -2 -56 0 -68 5
-13 5 -30 4 -42 -3 -16 -9 -17 -8 -6 5 11 13 8 15 -17 12 -16 -2 -33 -4 -38
-5 -24 -4 -35 2 -29 18 6 16 6 16 -12 0 -18 -16 -20 -16 -37 3 -10 11 -20 18
-23 15 -3 -3 -11 0 -18 5 -6 6 -16 10 -20 9 -20 -5 -117 39 -145 65 -13 12
-42 32 -64 45 l-40 23 30 -34 c17 -18 40 -42 52 -54 13 -12 19 -24 15 -28 -4
-4 0 -6 8 -4 8 2 14 -2 13 -8 -1 -6 9 -23 22 -38 14 -16 22 -33 18 -39 -4 -6
0 -8 10 -4 10 3 17 2 17 -3 0 -6 220 -9 578 -9 377 1 560 5 527 11 -27 4 -64
13 -81 18 -45 15 -124 12 -175 -5 -33 -11 -63 -13 -124 -7 -72 6 -80 9 -77 27
1 11 24 38 50 60 108 92 181 187 168 218 -2 7 -5 5 -5 -4 -1 -9 -8 -22 -16
-29 -13 -11 -14 -10 -10 2 4 9 0 15 -9 15 -8 0 -13 -4 -10 -9 3 -4 -5 -8 -16
-8 -16 0 -20 5 -16 15 3 8 1 15 -3 15 -5 0 -7 9 -4 20 6 23 4 24 -19 6z m82
-80 c0 -3 -4 -8 -10 -11 -5 -3 -10 -1 -10 4 0 6 5 11 10 11 6 0 10 -2 10 -4z"/>
<path d="M1129 168 c-8 -15 -3 -45 6 -45 6 0 12 6 12 14 0 7 -4 13 -9 13 -5 0
-6 5 -3 10 3 6 4 10 1 10 -3 0 -7 -1 -7 -2z"/>
<path d="M130 17 l-35 -11 29 -4 c17 -2 35 3 44 12 19 18 11 19 -38 3z"/>
</g>
</svg>
