<?xml version="1.0" standalone="no"?>
<!DOCTYPE svg PUBLIC "-//W3C//DTD SVG 20010904//EN"
 "http://www.w3.org/TR/2001/REC-SVG-20010904/DTD/svg10.dtd">
<svg version="1.0" xmlns="http://www.w3.org/2000/svg"
 width="400.000000pt" height="400.000000pt" viewBox="0 0 400.000000 400.000000"
 preserveAspectRatio="xMidYMid meet">
<metadata>
Created by potrace 1.11, written by Peter Selinger 2001-2013
</metadata>
<g transform="translate(0.000000,400.000000) scale(0.100000,-0.100000)"
fill="#000000" stroke="none">
<path d="M2069 3805 c-2 -22 -4 -29 -10 -40 -3 -5 -5 -24 -5 -41 1 -31 -16
-40 -32 -18 -12 17 -57 10 -60 -9 -2 -12 -9 -16 -18 -13 -9 3 -12 1 -9 -4 3
-6 -5 -10 -19 -10 -13 0 -26 5 -28 12 -6 16 -38 2 -38 -16 0 -9 10 -24 22 -36
26 -24 21 -25 -18 -5 -16 8 -25 15 -19 15 5 0 4 5 -2 11 -6 6 -33 12 -59 14
-48 3 -48 3 -21 -11 36 -19 34 -26 -4 -12 -23 8 -33 7 -42 -2 -8 -9 -8 -11 -1
-7 6 4 29 -2 50 -13 44 -22 43 -24 -4 -11 -20 6 -32 6 -32 0 0 -5 -7 -9 -15
-9 -8 0 -15 5 -15 12 0 6 -8 3 -20 -7 -10 -9 -18 -25 -17 -34 1 -9 -2 -16 -8
-16 -5 0 -9 6 -9 13 1 6 -4 12 -12 12 -8 0 -14 6 -14 13 0 13 -55 15 -68 2 -4
-5 -1 -5 6 -1 6 4 12 3 12 -2 0 -5 10 -14 23 -20 12 -6 16 -11 9 -11 -7 -1
-32 8 -54 19 -27 13 -44 16 -48 10 -4 -6 -15 -8 -25 -4 -10 4 -16 3 -13 -2 3
-5 2 -19 -3 -32 -7 -17 -15 -22 -35 -20 -44 5 -39 -19 6 -26 22 -3 40 -11 40
-17 0 -6 -6 -9 -13 -6 -25 9 -108 -14 -120 -34 -6 -10 -17 -19 -23 -19 -6 0
-18 -8 -25 -17 -8 -9 -9 -14 -3 -10 7 4 14 1 17 -6 3 -8 -5 -19 -16 -27 -20
-12 -21 -11 -9 2 10 13 10 17 -4 22 -21 8 -22 8 -21 -6 1 -42 -3 -49 -22 -38
-28 14 -36 12 -21 -5 7 -8 27 -15 44 -16 25 0 27 -2 11 -8 -19 -8 -19 -8 2
-19 12 -7 29 -12 37 -12 9 0 16 -4 16 -10 0 -13 -10 -12 -40 5 -30 17 -44 19
-35 4 4 -6 -2 -13 -14 -16 -12 -3 -21 -11 -21 -17 0 -7 -18 -23 -39 -36 -24
-16 -35 -28 -27 -32 8 -5 7 -11 -3 -20 -8 -7 -11 -8 -8 -3 8 14 -44 18 -77 5
-14 -5 -26 -17 -26 -25 0 -9 -6 -18 -14 -21 -8 -3 -24 -29 -36 -57 -13 -29
-34 -62 -47 -75 -13 -12 -26 -35 -28 -50 -1 -15 -8 -26 -14 -25 -10 3 -36 -35
-29 -42 2 -2 19 11 38 29 25 23 38 30 46 22 8 -8 2 -20 -22 -44 -19 -19 -37
-45 -40 -58 -4 -14 -16 -27 -30 -30 -13 -3 -22 -10 -19 -14 3 -5 -3 -14 -12
-20 -13 -8 -15 -13 -5 -17 9 -3 7 -10 -9 -24 -12 -10 -19 -19 -15 -19 4 0 0
-7 -9 -16 -9 -9 -14 -22 -11 -30 3 -7 1 -14 -3 -16 -5 -2 -11 -32 -15 -68 -8
-89 -16 -133 -27 -146 -10 -12 16 -30 36 -25 5 1 1 -8 -10 -20 -12 -13 -14
-19 -5 -14 13 8 13 7 1 -9 -8 -9 -23 -15 -32 -13 -23 6 -29 -11 -29 -78 0 -44
4 -56 20 -65 11 -6 19 -16 17 -22 -1 -6 5 -13 13 -15 12 -4 12 -3 2 5 -11 7
-7 11 12 14 15 3 29 1 32 -4 3 -5 12 -7 19 -4 9 3 11 -2 7 -16 -4 -19 -11 -20
-67 -15 -67 5 -82 1 -85 -23 -5 -30 0 -40 19 -40 16 0 19 5 15 25 -5 27 5 32
23 14 8 -8 20 -9 41 -1 25 9 33 7 46 -7 20 -22 20 -45 0 -66 -15 -15 -15 -17
5 -22 20 -5 26 -32 24 -100 -1 -7 4 -13 9 -13 6 0 5 -6 -2 -15 -9 -11 -10 -15
-1 -15 8 0 10 -8 6 -19 -5 -15 -1 -18 20 -13 14 2 25 0 26 -4 0 -5 2 -21 4
-36 4 -31 2 -32 -25 -18 -15 8 -17 7 -12 -13 3 -12 10 -25 16 -29 8 -5 7 -8
-1 -8 -7 0 -10 -7 -7 -15 4 -8 10 -12 16 -9 5 3 2 -8 -7 -26 -16 -31 -16 -32
4 -25 17 5 21 2 21 -14 0 -11 4 -22 9 -25 4 -3 8 32 9 77 0 46 3 115 8 153 4
38 8 89 10 114 1 25 10 65 20 90 14 36 18 78 20 205 1 88 5 196 9 240 10 99 9
98 17 110 8 13 18 81 20 129 1 22 11 58 23 80 11 23 30 69 40 103 11 35 24 59
30 55 5 -3 4 2 -4 11 -12 15 -11 17 3 17 11 0 15 8 12 30 -2 17 1 30 5 30 5 0
9 9 9 21 0 13 4 18 12 13 6 -4 8 -3 5 3 -4 6 -1 23 7 38 9 18 16 22 20 13 3
-7 3 -3 0 10 -3 12 -2 23 3 23 43 7 54 2 98 -42 27 -27 52 -49 57 -49 4 0 8
-5 8 -11 0 -7 -11 -9 -27 -6 -24 5 -28 2 -28 -18 0 -13 2 -22 4 -20 2 3 13 -2
23 -10 11 -7 26 -11 32 -9 7 3 13 -2 13 -10 0 -11 -6 -12 -24 -5 -14 5 -23 5
-23 -1 0 -6 3 -10 8 -10 4 0 20 -11 36 -23 22 -18 26 -26 16 -32 -9 -6 -11 -4
-5 5 5 9 4 11 -4 6 -6 -4 -8 -13 -4 -19 4 -6 8 -19 8 -29 1 -13 -2 -15 -16 -8
-14 8 -16 6 -12 -10 3 -13 20 -24 46 -31 23 -6 58 -24 78 -40 20 -16 39 -26
42 -23 6 6 77 -33 77 -42 0 -3 -13 2 -30 11 -37 19 -51 19 -23 0 37 -26 211
-38 328 -23 28 4 41 3 31 -1 -19 -7 -19 -8 2 -13 13 -4 20 -2 19 6 -1 6 10 10
28 9 79 -6 93 -8 89 -15 -2 -4 0 -9 5 -13 6 -3 8 -13 5 -23 -5 -13 -4 -14 4
-3 6 8 12 9 16 3 3 -6 16 -8 27 -5 14 4 25 0 31 -10 5 -10 21 -16 41 -16 37 0
57 -4 73 -13 13 -8 41 -5 51 7 4 4 2 5 -4 1 -7 -4 -13 -2 -13 3 0 17 27 13 34
-5 8 -22 8 -26 -3 -19 -5 3 -12 1 -15 -4 -10 -16 14 -24 29 -11 12 10 18 10
29 1 11 -9 15 -9 19 1 3 10 9 9 24 -4 11 -10 27 -18 35 -18 9 0 19 -6 21 -12
4 -10 6 -10 6 0 1 6 5 12 10 12 5 0 8 -8 7 -17 -1 -13 6 -18 27 -17 20 1 25
-2 17 -11 -5 -6 -7 -15 -3 -18 3 -4 0 -13 -6 -21 -10 -12 -9 -14 6 -12 11 2
18 11 18 24 0 12 7 27 15 34 12 11 12 11 0 -6 -8 -11 -13 -22 -12 -25 21 -36
22 -42 7 -48 -13 -4 -14 -8 -4 -14 8 -4 11 -10 8 -13 -7 -7 -50 5 -45 13 3 4
-3 7 -13 7 -10 0 -18 -7 -17 -15 1 -10 -8 -16 -26 -16 -15 -1 -25 2 -22 6 5 8
-27 22 -34 14 -3 -3 0 -5 6 -5 7 0 12 -5 12 -11 0 -6 -8 -8 -19 -4 -38 12 -61
14 -56 4 4 -5 12 -9 20 -9 8 0 17 -5 20 -11 5 -7 -4 -9 -25 -7 -24 2 -35 -2
-44 -17 -11 -19 -19 -30 -44 -60 -7 -9 -12 -21 -9 -28 4 -13 -17 -38 -30 -36
-19 3 -33 -2 -33 -12 0 -8 5 -8 15 1 12 10 15 10 15 -4 0 -9 -8 -16 -21 -16
-11 0 -18 -4 -15 -9 3 -5 0 -9 -7 -8 -39 1 -49 -3 -38 -16 14 -18 2 -30 -16
-16 -8 8 -13 8 -13 1 0 -6 4 -12 10 -14 5 -1 10 -29 11 -60 1 -32 6 -58 11
-58 5 0 7 -9 3 -19 -3 -11 -1 -22 5 -26 8 -5 8 -10 0 -20 -8 -9 -7 -14 2 -18
8 -2 14 -17 16 -31 1 -15 -2 -25 -6 -22 -5 3 -9 -1 -9 -9 0 -8 5 -12 10 -8 5
3 4 -4 -2 -16 -8 -14 -8 -21 -1 -21 12 0 13 -30 1 -48 -5 -8 -20 -15 -33 -15
-24 -2 -31 -18 -15 -33 4 -4 7 -20 7 -36 0 -15 5 -28 11 -28 5 0 8 -4 5 -9 -3
-4 10 -21 29 -36 18 -16 32 -32 29 -37 -3 -4 2 -24 12 -43 13 -28 14 -38 4
-50 -7 -8 -9 -15 -4 -15 5 0 4 -4 -3 -8 -6 -4 -13 -14 -15 -22 -4 -21 -49 -50
-76 -50 -13 0 -20 -4 -17 -10 3 -5 -1 -10 -9 -10 -9 0 -16 -4 -16 -10 0 -10 7
-12 44 -14 25 -1 34 -26 9 -26 -10 0 -31 7 -47 15 -16 9 -32 12 -35 8 -9 -12
-50 -8 -110 10 -68 21 -94 21 -132 1 -30 -15 -30 -16 -13 -35 9 -10 14 -19 11
-19 -3 0 -2 -14 3 -31 9 -31 9 -31 -15 -15 -21 14 -24 14 -29 0 -3 -9 -13 -14
-20 -11 -21 8 -39 -16 -24 -31 9 -9 7 -12 -9 -12 -22 0 -25 -22 -6 -41 8 -8
17 -8 31 0 32 17 79 13 92 -6 11 -17 11 -17 6 0 -5 16 -4 16 20 1 20 -13 24
-14 22 -3 -2 8 -7 17 -13 21 -5 4 -7 9 -5 12 3 2 21 -10 40 -27 19 -17 27 -28
17 -24 -9 3 -17 2 -17 -2 0 -14 33 -23 40 -11 5 8 11 7 21 -3 8 -7 21 -11 29
-9 13 4 13 3 2 -10 -9 -11 -10 -18 -2 -23 5 -3 10 -1 10 4 0 6 4 11 10 11 5 0
7 -7 3 -15 -3 -10 -1 -15 7 -13 7 2 15 -3 18 -11 3 -10 0 -12 -12 -8 -9 4 -15
3 -11 -2 3 -5 -12 -8 -32 -6 -37 3 -63 -8 -63 -27 0 -5 4 -6 10 -3 5 3 10 1
10 -4 0 -16 -46 -13 -60 3 -6 8 -19 12 -28 9 -14 -4 -15 -3 -2 5 9 7 18 8 26
1 8 -7 14 -6 19 1 7 11 3 12 -65 15 -76 4 -223 15 -273 21 l-49 6 5 -39 c3
-21 1 -43 -5 -50 -7 -9 -7 -13 1 -13 7 0 9 -4 6 -10 -3 -5 -1 -10 5 -10 6 0
10 8 9 17 -3 39 1 41 44 18 23 -12 41 -28 39 -34 -1 -6 4 -11 12 -11 8 0 16
-6 19 -13 3 -7 24 -19 47 -27 23 -8 44 -19 47 -26 3 -7 10 -11 17 -8 6 2 20
-3 31 -12 11 -8 13 -13 5 -9 -8 4 -6 -1 4 -9 14 -12 22 -13 27 -5 5 8 11 5 20
-10 14 -22 49 -29 49 -10 0 6 13 1 30 -11 16 -12 35 -18 40 -15 6 4 9 1 8 -7
-2 -8 8 -14 25 -16 15 -2 27 -9 27 -18 0 -8 7 -14 15 -14 13 0 14 -2 3 -14
-11 -12 -14 -11 -20 3 -6 14 -7 14 -7 0 -1 -12 -8 -15 -26 -11 -14 2 -36 -3
-50 -12 -20 -13 -25 -14 -25 -3 0 9 -9 12 -30 9 -30 -4 -42 -22 -15 -22 8 0
15 -7 15 -16 0 -10 6 -14 15 -10 9 3 15 0 15 -8 0 -7 10 -18 23 -24 17 -8 18
-11 5 -11 -10 -1 -18 -5 -18 -11 0 -5 8 -14 18 -19 9 -6 12 -11 5 -11 -6 0
-15 5 -18 10 -3 6 -14 10 -23 9 -11 0 -12 -3 -4 -6 6 -2 12 -11 12 -19 0 -8
15 -23 33 -34 17 -11 28 -20 24 -20 -5 0 -1 -7 7 -16 9 -8 26 -15 39 -14 37 3
49 1 42 -10 -8 -13 -5 -13 46 5 23 9 40 12 36 9 -4 -4 -2 -13 4 -21 8 -9 8
-13 1 -13 -6 0 -14 5 -17 10 -3 6 -12 10 -18 9 -9 0 -9 -2 1 -6 6 -2 12 -9 12
-14 0 -6 -6 -7 -12 -4 -7 4 -4 -2 8 -12 16 -14 20 -27 16 -51 -2 -18 -8 -32
-13 -32 -5 0 -6 -7 -3 -15 4 -8 1 -15 -5 -15 -6 0 -10 3 -10 8 1 4 0 10 -1 15
-4 12 -7 26 -9 37 -1 12 -51 -9 -51 -22 0 -5 4 -7 8 -4 5 3 9 0 9 -7 0 -7 -13
-13 -29 -14 -23 0 -26 1 -14 11 15 11 17 59 3 72 -3 4 -17 8 -31 9 -33 4 -41
-21 -16 -47 11 -12 20 -25 20 -29 0 -12 -39 -21 -52 -12 -19 11 -39 13 -32 2
3 -5 0 -9 -5 -9 -6 0 -11 5 -11 11 0 8 -4 9 -13 0 -8 -6 -17 -8 -21 -4 -4 4
-4 0 0 -10 3 -9 13 -17 21 -17 8 0 11 -5 8 -10 -5 -8 -12 -7 -22 1 -12 10 -16
10 -23 -1 -4 -7 -25 -15 -45 -17 -22 -2 -34 0 -31 6 4 5 2 12 -4 16 -5 3 -10
0 -10 -7 0 -18 -45 -37 -62 -27 -10 7 -10 9 2 10 8 1 18 1 23 0 13 -2 8 16 -9
29 -8 8 -14 9 -12 4 3 -9 -4 -14 -23 -14 -6 0 -9 6 -6 13 8 21 -7 92 -20 92
-6 0 -14 3 -18 7 -4 3 1 5 10 4 19 -3 47 -35 40 -46 -2 -4 2 -7 10 -7 11 0 12
4 4 14 -9 10 -8 13 5 13 9 0 16 -4 16 -10 0 -5 7 -10 15 -10 18 0 20 16 4 26
-8 4 -7 9 2 15 11 7 10 11 -6 23 -19 15 -19 15 10 16 24 1 26 3 11 9 -25 10
-5 24 21 15 16 -6 16 -5 -2 9 -20 16 -20 16 4 17 20 0 23 15 3 15 -4 0 -13 4
-19 8 -13 8 -17 -3 -14 -32 2 -7 -2 -10 -8 -6 -6 3 -20 8 -31 10 -16 3 -20 -2
-20 -25 0 -16 -5 -32 -10 -35 -9 -6 -15 8 -11 29 1 5 -10 6 -24 4 -14 -3 -25
-2 -25 3 0 4 -12 12 -27 17 l-28 10 25 10 c28 11 50 6 47 -11 -1 -6 8 -13 21
-15 16 -2 22 2 22 16 0 10 7 19 15 20 8 1 22 3 30 4 8 1 12 5 9 10 -3 5 -9 6
-14 3 -4 -3 -10 3 -12 13 -4 15 1 17 35 13 39 -3 39 -3 21 16 -15 15 -21 16
-29 6 -8 -10 -15 -8 -35 7 -15 12 -18 18 -7 14 9 -3 17 -1 17 5 0 6 -6 11 -12
11 -9 0 -8 4 2 10 12 8 10 10 -10 10 -18 0 -21 3 -11 9 10 7 7 9 -12 8 -28 -2
-38 -17 -12 -17 19 0 20 -16 1 -23 -21 -8 -37 13 -26 34 6 10 8 28 6 41 -2 18
-8 22 -29 20 -14 -2 -28 2 -32 8 -3 6 -3 10 2 9 24 -4 37 1 26 12 -8 8 -17 7
-35 -5 -16 -10 -28 -12 -38 -6 -12 8 -11 10 5 10 15 0 8 8 -25 30 -25 16 -40
30 -35 30 6 -1 19 -7 29 -15 23 -18 40 -20 30 -4 -3 6 0 15 7 20 11 7 10 9 -4
9 -10 0 -16 4 -13 9 4 5 -3 7 -14 4 -16 -4 -19 -2 -14 11 4 11 1 16 -12 16
-15 0 -16 2 -5 9 11 7 10 14 -4 39 -10 17 -29 35 -42 41 -22 10 -31 3 -16 -13
5 -4 8 -17 8 -29 0 -18 5 -22 30 -20 l30 2 -27 -10 c-16 -6 -28 -14 -28 -19 0
-5 12 -10 28 -12 l27 -3 -22 -22 c-21 -21 -21 -22 -2 -35 13 -8 18 -19 14 -30
-7 -17 -45 -32 -45 -17 0 5 -7 9 -16 9 -14 0 -14 -3 -4 -15 7 -8 20 -15 29
-15 14 -1 13 -3 -3 -15 -17 -13 -21 -12 -39 11 -15 20 -25 24 -44 19 -14 -3
-22 -2 -19 4 3 5 -1 11 -9 14 -9 4 -12 1 -8 -9 6 -17 -8 -18 -27 -1 -12 10
-12 9 -2 -5 9 -11 10 -18 2 -23 -15 -9 -12 -22 6 -29 14 -5 15 -4 5 8 -16 19
2 30 37 21 20 -5 23 -8 11 -16 -12 -7 -11 -9 4 -9 20 0 22 -11 4 -29 -10 -11
-8 -13 10 -8 13 3 27 -2 36 -12 30 -34 28 -39 -8 -31 -19 4 -35 6 -35 3 0 -3
-7 1 -17 8 -14 12 -16 12 -11 -1 2 -8 15 -16 27 -16 35 -2 37 -14 3 -14 -18 0
-32 -4 -32 -10 0 -5 16 -8 35 -6 19 1 35 -1 35 -6 0 -4 -11 -8 -24 -8 -30 0
-43 -17 -26 -33 10 -9 11 -9 6 1 -11 19 21 26 65 13 32 -10 38 -15 31 -28 -6
-10 -5 -25 4 -41 7 -13 10 -31 7 -39 -5 -12 0 -14 25 -8 18 3 32 3 33 -2 1
-16 7 -38 15 -57 6 -16 4 -18 -10 -13 -10 4 -21 7 -24 7 -4 0 -22 13 -41 29
-33 28 -71 46 -71 33 0 -3 8 -14 17 -25 13 -15 15 -21 6 -24 -20 -7 -15 -25 5
-19 13 5 21 -2 30 -26 6 -17 15 -29 18 -25 4 4 13 2 21 -4 10 -9 11 -15 1 -26
-6 -8 -7 -13 -2 -12 21 4 35 -2 29 -11 -4 -6 -10 -8 -15 -5 -5 3 -11 1 -14 -4
-4 -5 6 -8 20 -6 25 2 68 -30 59 -45 -3 -4 3 -14 12 -21 14 -12 16 -12 8 1 -7
12 -5 12 11 -1 22 -19 55 -33 68 -30 5 1 4 -5 -3 -13 -14 -17 -6 -40 11 -30 6
4 5 10 -3 15 -8 5 -9 9 -4 10 6 0 17 2 26 4 9 1 23 -1 30 -6 12 -7 12 -10 0
-21 -10 -10 -12 -10 -7 0 4 6 2 12 -3 12 -6 0 -11 -4 -11 -9 0 -21 22 -21 49
-2 33 23 57 28 27 6 -19 -14 -19 -15 0 -21 10 -4 24 -10 29 -12 6 -3 4 1 -3
10 -11 14 -10 18 9 28 14 8 19 8 15 1 -4 -6 -1 -11 7 -11 8 0 17 -10 21 -22 5
-22 6 -22 20 -3 15 20 15 19 9 -3 -4 -16 -1 -22 11 -22 11 0 14 5 10 12 -5 7
-3 8 7 3 15 -10 42 -16 77 -17 22 0 22 -1 5 -15 -13 -11 -15 -16 -5 -20 9 -4
10 -8 2 -18 -24 -29 27 -34 398 -35 351 -1 372 0 372 17 1 17 1 17 14 0 12
-15 33 -17 205 -17 130 1 191 5 191 12 0 16 32 37 58 38 13 0 32 5 44 11 20
11 20 11 -1 26 -14 9 -32 12 -51 8 -38 -8 -51 16 -25 45 22 24 23 24 -92 24
-100 1 -101 0 -40 -52 29 -26 36 -45 12 -36 -34 14 -11 -13 27 -30 43 -20 38
-33 -7 -22 -25 6 -95 69 -95 85 0 5 -7 12 -16 15 -9 4 -14 13 -10 21 6 17 -27
55 -48 55 -8 0 -16 7 -20 15 -3 8 -12 15 -19 15 -8 0 -19 10 -24 23 -9 18 -10
13 -8 -28 2 -40 8 -54 31 -73 16 -13 23 -21 17 -18 -15 8 -16 -4 -4 -37 5 -13
12 -38 14 -56 5 -31 5 -32 -12 -16 -17 14 -19 14 -24 0 -9 -23 -22 -18 -34 13
l-11 27 -1 -27 c-2 -47 -32 -25 -54 37 -6 17 -4 17 13 -4 22 -26 24 -21 10 28
-5 19 -6 39 -2 45 5 6 7 27 6 46 -12 138 -25 176 -43 127 -11 -27 -29 -43 -39
-33 -3 4 -5 24 -4 46 2 22 -3 50 -9 62 -11 20 -10 21 3 11 8 -7 18 -10 21 -6
12 11 8 23 -8 23 -19 0 -16 17 9 46 10 12 18 25 17 28 0 3 15 22 34 43 18 20
32 41 29 45 -3 4 2 8 11 8 15 0 50 34 50 49 0 4 8 15 18 25 9 10 17 24 17 32
0 8 4 13 9 10 12 -8 23 41 16 65 -4 11 -3 19 2 18 20 -3 25 2 13 16 -10 12
-10 15 0 15 7 0 10 8 7 20 -3 11 -2 20 3 20 8 0 24 57 21 78 -1 6 3 12 10 12
6 0 9 6 6 14 -3 8 6 38 20 66 14 28 25 63 25 78 0 15 4 32 9 38 6 7 12 23 15
35 8 37 9 129 1 129 -4 0 -11 0 -17 0 -5 0 -7 -7 -4 -15 7 -17 -22 -50 -31
-36 -3 5 -1 12 3 15 5 3 8 17 7 31 -2 14 0 23 5 20 4 -3 11 2 14 11 3 8 2 12
-4 9 -6 -4 -10 7 -10 26 0 18 -3 29 -7 26 -3 -4 -12 -2 -20 4 -7 6 -13 8 -13
3 0 -4 -6 0 -13 9 -6 10 -26 20 -42 22 -22 4 -26 3 -15 -5 8 -5 11 -10 6 -10
-5 0 -3 -6 4 -14 6 -8 18 -12 25 -10 18 7 60 -21 46 -31 -6 -3 -11 -1 -11 6 0
8 -4 8 -15 -1 -8 -7 -15 -9 -15 -4 0 5 -4 2 -10 -6 -6 -9 -5 -17 3 -22 9 -6 9
-8 0 -8 -7 0 -16 7 -21 16 -8 14 -12 12 -30 -11 -25 -31 -27 -46 -10 -63 9 -9
8 -12 -5 -12 -9 0 -17 4 -17 10 0 5 -7 7 -15 4 -9 -4 -15 0 -15 7 0 11 -3 11
-10 -1 -6 -10 -10 -11 -10 -2 0 6 -7 12 -15 12 -8 0 -15 4 -15 10 0 5 -12 16
-27 24 -24 13 -25 15 -8 16 16 0 17 2 5 10 -9 5 -19 5 -27 -2 -10 -8 -13 -5
-13 11 0 14 -9 25 -26 31 -14 6 -22 14 -19 20 3 5 1 10 -4 10 -6 0 -11 9 -11
20 0 12 -11 32 -25 45 -13 14 -19 25 -13 25 6 0 1 9 -12 20 -13 11 -28 20 -35
20 -6 0 -18 11 -25 25 -7 13 -16 22 -20 20 -11 -7 -21 22 -14 39 3 9 -3 17
-15 21 -12 3 -19 10 -16 15 3 5 -5 11 -17 13 -22 4 -22 4 2 6 23 2 24 3 5 11
-18 8 -19 9 -1 9 12 1 16 6 12 16 -3 8 -1 15 5 15 6 0 1 9 -12 21 l-24 20 24
-7 c19 -5 23 -3 18 10 -8 20 0 21 19 2 9 -9 10 -17 4 -21 -5 -3 -10 -14 -9
-23 0 -11 3 -12 6 -4 2 6 11 12 18 12 9 0 12 8 10 21 -3 13 0 19 8 16 7 -3 11
-10 9 -16 -2 -9 8 -11 33 -7 26 4 34 3 29 -6 -5 -7 -3 -8 5 -4 7 5 10 14 7 21
-5 14 11 15 33 1 10 -6 12 -5 7 2 -4 7 -1 12 8 12 8 0 18 -5 21 -10 4 -6 12
-7 18 -3 7 4 20 6 29 5 9 -2 19 6 23 18 6 19 13 21 48 17 87 -9 112 -24 135
-81 l12 -31 -6 30 -6 30 31 -29 c22 -21 29 -24 27 -11 -1 9 -9 21 -17 26 -9 6
-10 9 -2 9 7 0 20 -11 29 -25 9 -14 21 -25 28 -25 6 0 4 5 -4 10 -8 5 -11 10
-6 10 5 0 3 6 -3 13 -6 8 -8 16 -5 19 3 4 -2 20 -11 38 -16 32 -16 32 7 25 22
-7 22 -7 5 12 -9 11 -14 23 -11 26 4 4 1 15 -7 24 -13 16 -12 17 4 4 11 -9 17
-10 17 -2 0 21 2 26 12 39 8 9 6 12 -5 12 -8 0 -20 7 -27 15 -9 10 -9 15 -1
15 6 0 11 -4 11 -10 0 -5 4 -10 8 -10 9 0 12 21 13 99 1 53 19 55 19 2 0 -14
5 -21 13 -18 8 3 13 -7 14 -27 2 -17 10 -101 18 -186 8 -85 16 -197 16 -247 1
-87 8 -109 25 -81 5 7 3 8 -6 3 -9 -6 -11 -4 -5 6 5 7 10 35 12 62 2 27 7 56
12 65 4 10 7 27 6 39 -1 16 7 25 27 34 15 6 26 14 24 18 -4 7 14 26 29 30 6 1
9 15 7 32 -2 24 2 29 20 29 21 1 21 2 5 11 -9 6 -15 14 -12 20 4 5 2 9 -3 9
-6 0 -12 6 -15 14 -3 8 1 13 11 12 19 -1 23 22 8 43 -9 12 -7 12 12 2 12 -7
22 -8 22 -2 0 5 -9 13 -20 16 -16 5 -19 12 -14 31 5 18 1 29 -12 39 -18 14
-18 14 6 15 23 1 24 2 8 14 -28 21 -21 27 11 8 39 -22 48 -11 26 33 -9 20 -14
39 -11 42 3 4 6 1 6 -6 0 -7 5 -9 10 -6 6 3 10 21 10 39 0 17 5 37 11 43 6 6
11 38 11 72 1 49 -4 68 -24 98 -31 46 -85 104 -152 161 -27 23 -44 42 -39 42
6 0 57 -45 114 -100 57 -55 107 -100 111 -100 5 0 6 10 3 23 -3 12 -7 32 -8
45 0 12 -5 22 -10 22 -4 0 -5 5 -2 10 3 6 3 11 -2 11 -4 1 -21 3 -37 5 -15 1
-31 6 -35 10 -3 4 5 4 19 1 24 -6 24 -5 6 8 -11 8 -27 15 -37 15 -9 0 -19 9
-22 21 -4 15 -2 18 7 10 7 -6 17 -7 21 -3 5 4 5 1 1 -5 -4 -7 -2 -13 3 -13 16
0 13 17 -5 45 l-16 25 46 -6 c30 -5 46 -3 46 4 0 20 -58 52 -92 52 -24 0 -35
5 -35 15 0 8 6 15 13 15 10 0 11 6 4 25 -8 22 -6 26 17 32 25 6 25 7 8 13 -11
4 -23 2 -27 -4 -9 -13 -44 6 -41 23 2 6 -3 8 -11 5 -7 -3 -16 2 -20 11 -4 13
-1 15 14 10 15 -5 18 -3 14 9 -3 9 -10 16 -15 16 -5 0 -9 9 -9 20 0 13 5 18
15 14 25 -10 17 5 -12 20 -16 8 -22 15 -15 16 7 0 22 -5 34 -11 27 -14 36 -2
12 16 -25 19 -43 19 -67 -2 -20 -18 -20 -18 -2 10 9 15 24 27 31 27 8 0 14 3
15 8 0 4 2 14 4 23 2 12 -3 15 -19 11 -17 -4 -19 -2 -8 9 15 16 16 29 1 29 -5
0 -7 -4 -4 -10 4 -6 -6 -10 -22 -10 -16 0 -35 -6 -42 -12 -10 -11 -11 -10 -6
5 8 19 -9 22 -48 8 -14 -6 -29 -6 -38 0 -11 7 -10 9 6 9 11 0 27 5 35 11 11 8
3 9 -33 5 -52 -6 -57 8 -6 19 34 8 29 21 -11 28 -14 3 -6 4 17 4 23 0 46 2 49
6 4 4 -1 7 -10 7 -12 0 -16 5 -12 15 4 10 -1 15 -16 15 -17 0 -18 3 -8 15 10
12 7 14 -17 13 -15 -1 -37 2 -47 7 -15 6 -17 5 -11 -5 6 -10 4 -12 -9 -7 -10
4 -24 7 -33 7 -8 0 -13 6 -10 13 4 13 61 11 89 -4 11 -6 18 -4 21 4 4 12 -14
16 -80 20 -12 0 -25 47 -13 47 4 0 10 14 12 30 4 29 -5 40 -17 20 -4 -6 -10
-8 -15 -5 -5 3 -17 -6 -28 -20 -11 -14 -22 -21 -24 -15 -2 7 -17 5 -42 -5 -32
-14 -40 -14 -47 -3 -11 16 -11 38 -1 37 28 -5 34 3 12 16 -14 8 -20 15 -15 15
6 0 3 5 -5 10 -19 12 -33 13 -26 1 3 -4 -6 -6 -21 -3 -20 4 -25 2 -20 -10 5
-14 -6 -16 -45 -9 -13 2 4 31 18 31 8 0 14 5 14 11 0 5 6 7 13 3 9 -5 9 -4 0
6 -9 10 -17 9 -38 -8 -23 -18 -62 -21 -51 -3 2 3 -7 11 -20 18 -13 6 -22 8
-19 3 5 -8 -17 -20 -47 -26 -25 -5 -24 38 2 56 14 10 16 17 9 26 -8 9 -5 11
10 7 27 -7 27 13 0 27 -11 7 -18 14 -15 17 5 5 -5 21 -50 82 -1 1 -7 0 -13 -3
-7 -5 -7 -15 0 -33 8 -23 8 -24 -6 -13 -8 7 -13 16 -10 20 3 5 -1 11 -7 13
-10 4 -10 6 0 6 8 1 6 9 -8 23 -27 29 -51 78 -44 89 3 5 -2 9 -10 9 -9 0 -16
7 -16 15 0 8 -9 15 -20 15 -11 0 -23 7 -26 15 -4 8 -11 12 -17 8 -5 -3 -7 -2
-4 4 9 14 -65 79 -86 75 -12 -3 -21 6 -28 27 -12 33 -28 41 -30 16z m56 -215
c10 -11 16 -20 13 -20 -3 0 -13 9 -23 20 -10 11 -16 20 -13 20 3 0 13 -9 23
-20z m76 -57 c13 -16 12 -17 -3 -4 -17 13 -22 21 -14 21 2 0 10 -8 17 -17z
m399 -288 c16 -9 19 -14 9 -15 -8 0 -24 7 -35 15 -24 18 -7 19 26 0z m-1286
-50 c28 -37 21 -51 -19 -41 -26 7 -53 40 -60 74 -3 19 -1 20 25 10 16 -5 40
-25 54 -43z m11 45 c8 -13 -5 -13 -25 0 -13 8 -13 10 2 10 9 0 20 -4 23 -10z
m-209 -84 c3 -9 13 -12 22 -9 9 4 15 4 12 2 -39 -33 -52 -42 -47 -32 4 6 3 14
-3 18 -13 8 -13 35 0 35 6 0 13 -6 16 -14z m-16 -56 c8 -5 11 -10 5 -10 -5 0
-17 5 -25 10 -8 5 -10 10 -5 10 6 0 17 -5 25 -10z m1808 -46 c2 -1 -5 -5 -15
-8 -9 -4 -14 -4 -10 0 4 4 1 14 -6 23 -11 14 -10 15 8 1 11 -8 21 -15 23 -16z
m-1466 -119 c2 3 15 -6 27 -19 18 -19 20 -24 7 -29 -11 -4 -13 -1 -9 10 5 13
3 14 -15 4 -19 -10 -21 -9 -15 6 6 16 5 16 -10 4 -13 -10 -15 -17 -6 -27 9
-11 8 -14 -4 -14 -19 0 -31 16 -18 25 6 3 8 12 5 20 -4 8 -11 12 -17 8 -6 -4
-7 -1 -2 7 6 10 11 9 23 -6 14 -18 14 -18 9 4 -4 18 -3 21 7 13 7 -6 15 -9 18
-6z m148 -66 c28 -33 50 -55 50 -49 0 10 80 -25 90 -40 3 -4 12 -10 20 -13 8
-4 -1 -5 -20 -3 -51 5 -59 8 -118 39 -29 15 -62 27 -74 27 -12 0 -18 3 -15 7
4 3 1 13 -5 22 -8 10 -4 9 10 -3 12 -11 25 -16 30 -12 4 4 0 13 -8 19 -9 7
-14 20 -12 30 2 11 -3 17 -15 18 -10 0 -13 3 -5 6 6 2 9 10 6 15 -17 28 21 -9
66 -63z m-120 -9 c0 -5 -2 -10 -4 -10 -3 0 -8 5 -11 10 -3 6 -1 10 4 10 6 0
11 -4 11 -10z m34 -6 c3 -8 2 -12 -4 -9 -6 3 -10 10 -10 16 0 14 7 11 14 -7z
m211 -34 c8 -13 -5 -13 -25 0 -13 8 -13 10 2 10 9 0 20 -4 23 -10z m1395 6 c0
-2 -7 -7 -16 -10 -8 -3 -12 -2 -9 4 6 10 25 14 25 6z m-1436 -75 c-6 -6 -85
21 -117 40 -19 11 -24 18 -15 21 13 5 140 -54 132 -61z m96 39 c0 -5 -2 -10
-4 -10 -3 0 -8 5 -11 10 -3 6 -1 10 4 10 6 0 11 -4 11 -10z m254 -32 c-3 -4
-12 -8 -20 -8 -8 0 -14 4 -14 8 0 4 9 8 19 8 11 0 17 -4 15 -8z m196 -84 c0
-2 -9 0 -20 6 -11 6 -20 13 -20 16 0 2 9 0 20 -6 11 -6 20 -13 20 -16z m387
-166 c-3 -8 -6 -5 -6 6 -1 11 2 17 5 13 3 -3 4 -12 1 -19z m-1872 -208 c3 -5
2 -10 -4 -10 -5 0 -13 5 -16 10 -3 6 -2 10 4 10 5 0 13 -4 16 -10z m2535 -151
c0 -11 -4 -18 -10 -14 -5 3 -7 12 -3 20 7 21 13 19 13 -6z m-595 -139 c-3 -5
-13 -6 -21 -3 -12 4 -13 8 -3 14 15 9 32 2 24 -11z m67 -122 c-9 -9 -15 -9
-24 1 -11 11 -10 13 5 8 10 -4 17 -2 17 5 0 6 3 8 7 5 4 -4 1 -13 -5 -19z
m149 -35 c13 -16 12 -17 -3 -5 -22 18 -31 -8 -9 -26 14 -11 13 -11 -7 -2 -18
9 -20 14 -12 30 13 24 14 24 31 3z m-520 -46 c-10 -9 -11 -8 -5 6 3 10 9 15
12 12 3 -3 0 -11 -7 -18z m209 -21 c0 -11 -19 -15 -25 -6 -3 5 1 10 9 10 9 0
16 -2 16 -4z m-534 -429 c4 -4 -2 -7 -14 -7 -11 0 -23 4 -26 8 -6 10 30 9 40
-1z m923 -237 l-1 -25 -8 25 c-4 14 -8 32 -9 40 -1 13 0 13 9 0 5 -8 9 -26 9
-40z m-788 13 c13 -17 13 -17 -6 -3 -11 8 -22 16 -24 17 -2 2 0 3 6 3 6 0 17
-8 24 -17z m-96 -13 c4 -6 -6 -10 -22 -10 -22 0 -25 2 -13 10 19 12 27 12 35
0z m-313 -63 c4 -7 8 -19 8 -27 1 -12 3 -11 11 3 14 24 57 21 79 -5 15 -19 20
-20 33 -10 12 10 25 10 64 1 26 -7 54 -17 62 -23 11 -8 15 -8 18 2 3 7 24 12
58 12 59 0 75 -16 47 -47 -19 -22 -57 -40 -46 -22 4 7 -1 7 -16 -1 -18 -9 -25
-9 -40 5 -15 13 -18 14 -23 2 -4 -11 -16 -13 -57 -6 -29 4 -58 13 -66 20 -9 7
-19 8 -26 2 -7 -5 -19 -8 -25 -7 -7 1 -20 2 -28 3 -9 0 -20 12 -25 25 -6 18
-14 22 -32 19 -28 -5 -45 11 -52 51 -5 26 -3 27 22 21 15 -4 30 -12 34 -18z
m1018 3 c0 -5 -4 -10 -10 -10 -5 0 -10 5 -10 10 0 6 5 10 10 10 6 0 10 -4 10
-10z m5 -40 c3 -5 1 -10 -4 -10 -6 0 -11 5 -11 10 0 6 2 10 4 10 3 0 8 -4 11
-10z m-534 -10 c9 -55 2 -65 -35 -56 -48 12 -39 68 10 64 13 -1 24 -5 25 -8z
m526 -29 c-1 -13 -9 -18 -29 -19 -16 0 -26 4 -23 9 4 5 15 9 26 9 10 0 19 5
19 10 0 6 2 10 4 10 3 0 4 -8 3 -19z m-1382 -30 c3 -5 2 -12 -3 -15 -5 -3 -9
1 -9 9 0 17 3 19 12 6z m652 -203 c-3 -8 -6 -5 -6 6 -1 11 2 17 5 13 3 -3 4
-12 1 -19z m-607 3 c0 -5 -6 -11 -14 -14 -9 -4 -12 -14 -9 -29 3 -13 2 -20 -2
-16 -4 4 -16 3 -27 -3 -16 -9 -19 -7 -16 8 6 36 68 86 68 54z m-80 -41 c0 -5
-7 -7 -15 -4 -8 4 -15 8 -15 10 0 2 7 4 15 4 8 0 15 -4 15 -10z m120 -20 c0
-5 -4 -10 -10 -10 -5 0 -10 5 -10 10 0 6 5 10 10 10 6 0 10 -4 10 -10z m-40
-20 c0 -5 -7 -10 -16 -10 -8 0 -12 5 -9 10 3 6 10 10 16 10 5 0 9 -4 9 -10z
m95 -20 c3 -5 1 -10 -4 -10 -6 0 -11 5 -11 10 0 6 2 10 4 10 3 0 8 -4 11 -10z
m445 -4 c0 -2 -7 -7 -16 -10 -8 -3 -12 -2 -9 4 6 10 25 14 25 6z m-360 -42 c0
-8 -5 -12 -10 -9 -6 4 -8 11 -5 16 9 14 15 11 15 -7z m-183 0 c-3 -3 -12 -4
-19 -1 -8 3 -5 6 6 6 11 1 17 -2 13 -5z m67 -26 c-3 -4 -9 -8 -15 -8 -5 0 -9
4 -9 8 0 5 7 9 15 9 8 0 12 -4 9 -9z m41 -6 c-3 -3 -11 0 -18 7 -9 10 -8 11 6
5 10 -3 15 -9 12 -12z m-75 -24 c0 -4 -13 -6 -29 -5 -16 1 -27 5 -25 9 6 10
54 6 54 -4z m65 -38 c-6 -18 -3 -20 29 -16 20 3 34 1 31 -4 -3 -5 -11 -7 -18
-4 -7 2 -21 -2 -32 -10 -18 -13 -18 -14 6 -21 39 -12 50 -25 38 -46 -5 -10
-17 -19 -27 -19 -14 0 -14 2 -3 9 11 7 9 11 -9 21 -18 10 -20 14 -9 21 10 6 3
9 -21 9 -29 1 -32 2 -17 11 15 9 16 13 5 27 -10 12 -10 14 0 8 6 -4 12 -2 12
3 0 6 -5 11 -11 11 -5 0 -7 5 -4 10 3 6 13 10 21 10 11 0 13 -6 9 -20z m145
16 c0 -3 -4 -8 -10 -11 -5 -3 -10 -1 -10 4 0 6 5 11 10 11 6 0 10 -2 10 -4z
m-215 -36 c3 -5 1 -10 -4 -10 -6 0 -11 5 -11 10 0 6 2 10 4 10 3 0 8 -4 11
-10z m205 -30 c0 -5 -2 -10 -4 -10 -3 0 -8 5 -11 10 -3 6 -1 10 4 10 6 0 11
-4 11 -10z m295 -28 c-3 -3 -11 0 -18 7 -9 10 -8 11 6 5 10 -3 15 -9 12 -12z
m195 -98 c0 -8 -19 -13 -24 -6 -3 5 1 9 9 9 8 0 15 -2 15 -3z m-265 -20 c14
-9 25 -21 25 -27 0 -6 -3 -7 -7 -4 -3 4 -11 -1 -18 -10 -7 -9 -17 -13 -25 -8
-10 6 -9 9 1 16 9 6 10 12 4 17 -11 8 -18 32 -10 32 3 0 17 -7 30 -16z m-130
-4 c8 -13 -15 -13 -35 0 -12 8 -11 10 7 10 12 0 25 -4 28 -10z m80 -10 c3 -6
-1 -7 -9 -4 -18 7 -21 14 -7 14 6 0 13 -4 16 -10z m125 -10 c0 -5 -7 -7 -15
-4 -8 4 -15 8 -15 10 0 2 7 4 15 4 8 0 15 -4 15 -10z m950 -170 c0 -5 -11 -10
-25 -10 -14 0 -25 5 -25 10 0 6 11 10 25 10 14 0 25 -4 25 -10z"/>
<path d="M2332 3748 c4 -24 3 -26 -13 -18 -25 14 -29 12 -22 -5 3 -9 11 -14
17 -12 14 5 46 -11 46 -22 0 -5 -8 -7 -19 -4 -31 8 -35 -16 -4 -28 15 -6 36
-15 46 -20 10 -6 21 -8 25 -5 5 3 26 1 48 -4 21 -5 42 -6 46 -2 14 14 -35 96
-62 103 -14 4 -19 7 -11 8 16 1 7 13 -12 17 -7 2 -22 6 -34 10 -15 4 -23 2
-23 -6 0 -9 -4 -9 -17 1 -15 13 -16 11 -11 -13z"/>
<path d="M2540 3766 c0 -2 8 -10 18 -17 15 -13 16 -12 3 4 -13 16 -21 21 -21
13z"/>
<path d="M2536 3691 c-4 -5 -3 -16 0 -25 3 -9 1 -16 -6 -16 -6 0 -8 -4 -5 -10
3 -5 17 -10 31 -10 14 0 23 4 20 9 -4 5 4 7 16 3 l23 -5 -20 22 c-26 30 -52
44 -59 32z"/>
<path d="M2372 3598 c7 -13 20 -32 28 -42 9 -12 10 -16 3 -12 -7 4 -13 3 -13
-3 0 -23 163 -112 178 -97 2 3 -28 21 -66 40 -39 20 -74 40 -77 46 -4 6 15 0
42 -14 91 -48 134 -66 128 -56 -3 5 -1 10 5 10 7 0 8 6 0 19 -15 28 -13 33 10
21 11 -6 20 -17 20 -25 0 -8 5 -15 10 -15 15 0 12 26 -5 40 -11 9 -12 15 -5
20 8 5 5 17 -8 41 -18 32 -22 34 -73 35 -30 1 -84 4 -122 8 l-67 6 12 -22z
m135 -14 c-3 -3 -12 -4 -19 -1 -8 3 -5 6 6 6 11 1 17 -2 13 -5z m37 0 c9 -3
14 -10 11 -15 -7 -10 -35 0 -35 12 0 11 3 11 24 3z m21 -50 c9 -9 14 -18 12
-20 -7 -8 -35 7 -41 22 -7 19 9 18 29 -2z m25 -54 c0 -6 -9 -5 -20 2 -11 7
-20 16 -20 21 0 4 9 3 20 -3 11 -6 20 -15 20 -20z"/>
<path d="M2662 3587 c18 -19 35 -29 37 -23 4 10 -47 56 -62 56 -4 0 7 -15 25
-33z"/>
<path d="M2350 3576 c0 -2 8 -10 18 -17 15 -13 16 -12 3 4 -13 16 -21 21 -21
13z"/>
<path d="M1345 3490 c-19 -8 -19 -9 3 -9 12 -1 22 4 22 9 0 6 -1 10 -2 9 -2 0
-12 -4 -23 -9z"/>
<path d="M1388 3493 c7 -3 16 -2 19 1 4 3 -2 6 -13 5 -11 0 -14 -3 -6 -6z"/>
<path d="M2464 3454 c15 -14 31 -22 35 -19 7 7 -39 45 -54 44 -5 0 3 -11 19
-25z"/>
<path d="M2525 3420 c3 -5 11 -10 16 -10 6 0 7 5 4 10 -3 6 -11 10 -16 10 -6
0 -7 -4 -4 -10z"/>
<path d="M2670 3390 c0 -5 5 -10 11 -10 5 0 7 5 4 10 -3 6 -8 10 -11 10 -2 0
-4 -4 -4 -10z"/>
<path d="M2700 3391 c0 -10 30 -24 37 -17 3 2 -5 9 -16 16 -12 6 -21 7 -21 1z"/>
<path d="M3038 3123 c7 -3 16 -2 19 1 4 3 -2 6 -13 5 -11 0 -14 -3 -6 -6z"/>
<path d="M1275 2950 c10 -11 20 -20 22 -20 2 0 -1 9 -7 20 -6 11 -16 20 -22
20 -6 0 -3 -9 7 -20z"/>
<path d="M1810 2725 c0 -2 14 -18 30 -35 17 -17 30 -34 30 -39 0 -4 16 -7 35
-7 37 1 46 10 20 20 -19 7 -20 26 -1 26 8 0 17 3 19 8 3 4 -19 7 -49 7 -30 0
-54 3 -54 6 0 4 -7 9 -15 13 -8 3 -15 3 -15 1z m75 -55 c3 -5 1 -10 -4 -10 -6
0 -11 5 -11 10 0 6 2 10 4 10 3 0 8 -4 11 -10z"/>
<path d="M2144 2638 c-4 -6 -3 -8 4 -4 5 3 13 0 15 -6 4 -10 6 -10 6 -1 1 7 8
10 19 7 14 -5 15 -4 2 5 -20 14 -37 14 -46 -1z"/>
<path d="M3230 2574 c0 -10 38 -21 49 -15 9 6 3 10 -18 13 -17 2 -31 3 -31 2z"/>
<path d="M2465 2541 c-3 -5 -2 -12 3 -15 5 -3 9 1 9 9 0 17 -3 19 -12 6z"/>
<path d="M1300 2471 c0 -6 -7 -7 -17 -4 -10 4 -14 2 -10 -4 4 -6 -3 -13 -16
-17 -26 -6 -122 -94 -113 -103 3 -3 -5 -21 -19 -39 -29 -37 -32 -59 -9 -50 9
3 36 6 60 6 31 0 43 4 38 11 -3 6 -1 15 7 19 9 6 5 11 -14 15 -15 4 -25 10
-22 14 7 12 127 3 135 -9 4 -7 32 -13 61 -13 44 -2 54 1 53 14 -1 12 6 16 22
15 13 0 24 -3 24 -6 0 -3 9 -6 20 -7 11 -1 20 2 20 8 0 15 19 10 40 -11 11
-11 20 -16 20 -11 0 5 -7 17 -16 25 -8 9 -11 16 -6 16 5 0 15 -7 22 -15 12
-15 66 -15 102 0 16 6 77 2 143 -10 51 -9 108 -3 129 15 7 5 15 9 17 7 2 -1
-1 3 -8 9 -7 6 -10 22 -8 37 6 31 -25 57 -66 57 -34 0 -60 -10 -54 -20 3 -4
-2 -10 -10 -14 -15 -5 -19 5 -15 33 1 8 -4 12 -14 8 -11 -4 -13 -1 -9 10 5 12
2 15 -10 10 -8 -3 -18 -1 -21 6 -3 8 -5 8 -5 1 -1 -7 -15 -10 -38 -7 -21 3
-67 4 -103 4 -36 -1 -101 -1 -145 -2 -59 -1 -85 -5 -99 -18 -17 -15 -18 -15
-15 4 3 15 -2 21 -23 23 -16 2 -28 -1 -28 -7z"/>
<path d="M705 2391 c-3 -5 -1 -12 5 -16 5 -3 10 1 10 9 0 18 -6 21 -15 7z"/>
<path d="M1273 2283 c9 -2 25 -2 35 0 9 3 1 5 -18 5 -19 0 -27 -2 -17 -5z"/>
<path d="M1519 2258 c-11 -4 -37 -6 -59 -4 -21 2 -40 0 -42 -5 -2 -5 -17 -12
-33 -14 -65 -11 -86 -17 -81 -23 4 -3 -4 -13 -16 -21 -23 -16 -29 -29 -33 -66
-3 -32 -16 -55 -31 -55 -8 0 -14 -4 -14 -9 0 -5 33 -17 73 -26 39 -9 98 -25
131 -36 32 -11 81 -21 110 -22 48 -2 52 -4 48 -24 -3 -18 -1 -21 19 -16 23 6
23 6 6 -11 -37 -38 -160 -48 -238 -21 -22 8 -37 10 -34 6 3 -5 -1 -11 -7 -14
-7 -2 7 -14 32 -27 48 -25 114 -35 103 -16 -3 6 0 5 8 -1 7 -7 24 -13 39 -14
l25 -1 -25 -8 c-22 -7 -22 -8 -5 -10 32 -4 59 1 70 11 7 7 4 8 -7 4 -10 -4
-18 -3 -18 2 0 13 48 15 71 3 15 -8 19 -8 17 2 -2 7 3 12 11 10 35 -7 191 63
192 87 0 10 2 12 6 4 2 -7 12 -13 21 -12 11 0 12 2 4 6 -6 2 -10 8 -7 13 3 4
-2 24 -10 43 -13 30 -13 36 0 41 8 3 17 0 21 -6 4 -7 10 -5 16 6 6 10 7 20 4
23 -3 4 -6 0 -6 -7 0 -7 -11 0 -25 15 -28 33 -18 60 19 49 21 -7 21 -6 2 15
-11 12 -22 17 -26 12 -3 -6 -11 -1 -19 10 -7 12 -8 18 -2 14 6 -3 11 1 11 10
0 15 -45 41 -64 36 -5 -1 -5 6 -2 16 7 16 6 16 -12 0 -17 -16 -21 -16 -32 -2
-7 8 -19 15 -26 15 -8 0 -14 4 -14 10 0 12 -43 8 -52 -5 -5 -6 -8 -5 -8 4 0 7
-6 11 -15 7 -8 -3 -15 -2 -15 3 0 10 -53 9 -81 -1z m-10 -64 c1 -1 -13 -6 -33
-9 -20 -4 -36 -12 -36 -18 0 -6 -3 -8 -6 -4 -3 3 -35 -10 -71 -29 -60 -33 -93
-38 -93 -15 0 5 9 13 20 16 11 4 18 10 16 14 -11 17 134 61 174 53 14 -3 27
-6 29 -8z m-75 -96 c-4 -13 -7 -28 -7 -34 0 -12 -45 -6 -53 8 -8 13 27 47 49
47 15 1 17 -4 11 -21z m56 -54 c0 -2 -7 -4 -15 -4 -8 0 -15 4 -15 10 0 5 7 7
15 4 8 -4 15 -8 15 -10z"/>
<path d="M1170 2226 c0 -2 7 -7 16 -10 8 -3 12 -2 9 4 -6 10 -25 14 -25 6z"/>
<path d="M1113 2183 c9 -2 25 -2 35 0 9 3 1 5 -18 5 -19 0 -27 -2 -17 -5z"/>
<path d="M680 2170 c0 -5 5 -10 11 -10 5 0 7 5 4 10 -3 6 -8 10 -11 10 -2 0
-4 -4 -4 -10z"/>
<path d="M667 1999 c7 -7 15 -10 18 -7 3 3 -2 9 -12 12 -14 6 -15 5 -6 -5z"/>
<path d="M1880 2000 c0 -5 5 -10 11 -10 5 0 7 5 4 10 -3 6 -8 10 -11 10 -2 0
-4 -4 -4 -10z"/>
<path d="M3257 1999 c7 -7 15 -10 18 -7 3 3 -2 9 -12 12 -14 6 -15 5 -6 -5z"/>
<path d="M718 1973 c7 -3 16 -2 19 1 4 3 -2 6 -13 5 -11 0 -14 -3 -6 -6z"/>
<path d="M696 1951 c3 -3 25 -5 49 -6 26 0 39 3 31 7 -15 8 -88 7 -80 -1z"/>
<path d="M1528 1943 c6 -2 18 -2 25 0 6 3 1 5 -13 5 -14 0 -19 -2 -12 -5z"/>
<path d="M1260 1930 c0 -5 10 -10 23 -10 18 0 19 2 7 10 -19 13 -30 13 -30 0z"/>
<path d="M2845 1720 c-3 -5 -1 -10 4 -10 6 0 11 5 11 10 0 6 -2 10 -4 10 -3 0
-8 -4 -11 -10z"/>
<path d="M2891 1684 c0 -11 3 -14 6 -6 3 7 2 16 -1 19 -3 4 -6 -2 -5 -13z"/>
<path d="M2917 1683 c-10 -10 -8 -35 2 -29 5 4 11 1 13 -5 2 -7 8 -6 16 4 10
12 10 17 1 23 -8 5 -9 3 -4 -6 5 -8 3 -11 -6 -8 -8 3 -13 11 -11 17 2 12 -2
14 -11 4z"/>
<path d="M2970 1640 c0 -11 4 -20 8 -20 4 0 8 9 8 20 0 11 -4 20 -8 20 -4 0
-8 -9 -8 -20z"/>
<path d="M1775 1619 c-11 -17 1 -21 15 -4 8 9 8 15 2 15 -6 0 -14 -5 -17 -11z"/>
<path d="M1801 1608 c-14 -23 -14 -23 8 -4 22 20 25 26 13 26 -4 0 -13 -10
-21 -22z"/>
<path d="M1853 1612 c-14 -2 -23 -10 -23 -20 0 -13 2 -14 9 -4 6 11 11 10 25
-3 9 -9 16 -11 16 -5 0 6 5 8 10 5 15 -9 12 11 -2 22 -7 5 -23 7 -35 5z"/>
<path d="M1494 1476 c-13 -26 -21 -32 -38 -28 -11 3 -18 2 -14 -3 4 -4 0 -14
-8 -23 -13 -12 -13 -17 -2 -24 8 -5 2 -7 -17 -3 -16 3 -24 2 -17 -1 10 -5 9
-9 -5 -20 -17 -13 -17 -13 0 -14 15 0 12 -5 -13 -26 -18 -16 -29 -33 -26 -41
4 -9 -6 -21 -23 -31 -54 -31 -65 -156 -15 -168 16 -4 24 -13 24 -28 0 -12 9
-29 20 -38 19 -17 19 -16 16 12 -4 32 20 43 30 15 6 -15 24 -11 24 5 0 5 -13
23 -29 39 -16 16 -27 32 -24 35 3 3 0 12 -6 20 -19 23 3 57 34 52 14 -3 30 -8
37 -12 7 -4 4 2 -7 13 -11 12 -24 20 -29 19 -5 0 -11 5 -13 12 -3 7 5 12 21
12 19 0 26 5 26 20 0 11 -4 20 -10 20 -5 0 -10 5 -10 11 0 6 7 9 15 5 9 -3 15
0 15 8 0 13 27 31 42 28 4 -1 9 7 13 17 3 10 17 23 30 29 14 6 25 16 25 21 0
5 7 16 15 25 12 11 13 21 5 42 -6 15 -13 24 -16 21 -3 -3 -17 -2 -30 3 -22 9
-26 6 -40 -24z"/>
<path d="M2939 1449 c-13 -8 -12 -10 11 -13 6 0 15 -8 20 -16 5 -8 11 -12 14
-10 2 3 -4 15 -13 27 -12 15 -22 18 -32 12z"/>
<path d="M2855 1380 c-3 -5 -1 -10 4 -10 6 0 11 5 11 10 0 6 -2 10 -4 10 -3 0
-8 -4 -11 -10z"/>
<path d="M2796 1323 c-11 -11 -6 -21 14 -26 11 -3 20 -3 20 0 0 10 -28 32 -34
26z"/>
<path d="M1485 1290 c3 -5 8 -10 11 -10 2 0 4 5 4 10 0 6 -5 10 -11 10 -5 0
-7 -4 -4 -10z"/>
<path d="M1550 1250 c0 -5 -7 -10 -16 -12 -13 -3 -13 -6 -2 -21 8 -10 20 -16
29 -12 19 7 22 42 3 49 -8 3 -14 1 -14 -4z"/>
<path d="M3073 1223 c-3 -10 -8 -21 -10 -25 -2 -5 0 -8 5 -8 5 0 12 11 14 25
6 29 0 33 -9 8z"/>
<path d="M1615 1210 c-4 -6 -11 -8 -16 -5 -5 3 -6 0 -3 -8 5 -15 44 -12 44 4
0 13 -18 20 -25 9z"/>
<path d="M1716 1212 c-2 -4 4 -8 14 -8 10 0 16 4 14 8 -3 4 -9 8 -14 8 -5 0
-11 -4 -14 -8z"/>
<path d="M1415 1110 c-3 -5 3 -10 15 -10 12 0 18 5 15 10 -3 6 -10 10 -15 10
-5 0 -12 -4 -15 -10z"/>
<path d="M1436 1024 c-5 -14 -4 -15 9 -4 17 14 19 20 6 20 -5 0 -12 -7 -15
-16z"/>
<path d="M1280 864 c0 -13 18 -39 24 -34 2 3 -2 14 -10 24 -8 11 -14 16 -14
10z"/>
<path d="M1400 800 c0 -5 5 -10 11 -10 5 0 7 5 4 10 -3 6 -8 10 -11 10 -2 0
-4 -4 -4 -10z"/>
<path d="M1675 651 c-3 -5 -1 -12 5 -16 5 -3 10 1 10 9 0 18 -6 21 -15 7z"/>
<path d="M1720 645 c0 -8 7 -15 15 -15 8 0 15 7 15 15 0 8 -7 15 -15 15 -8 0
-15 -7 -15 -15z"/>
<path d="M1845 610 c4 -6 11 -8 16 -5 14 9 11 15 -7 15 -8 0 -12 -5 -9 -10z"/>
<path d="M1708 593 c7 -3 16 -2 19 1 4 3 -2 6 -13 5 -11 0 -14 -3 -6 -6z"/>
<path d="M1330 576 c0 -2 7 -7 16 -10 8 -3 12 -2 9 4 -6 10 -25 14 -25 6z"/>
<path d="M1778 493 c6 -2 18 -2 25 0 6 3 1 5 -13 5 -14 0 -19 -2 -12 -5z"/>
<path d="M2030 485 c7 -8 16 -12 21 -9 5 3 9 0 9 -7 0 -7 3 -9 7 -5 5 4 -1 14
-11 22 -26 18 -42 18 -26 -1z"/>
<path d="M1730 480 c0 -5 7 -10 16 -10 8 0 12 5 9 10 -3 6 -10 10 -16 10 -5 0
-9 -4 -9 -10z"/>
<path d="M2010 470 c0 -5 5 -10 10 -10 6 0 10 5 10 10 0 6 -4 10 -10 10 -5 0
-10 -4 -10 -10z"/>
<path d="M1455 450 c3 -5 11 -10 16 -10 6 0 7 5 4 10 -3 6 -11 10 -16 10 -6 0
-7 -4 -4 -10z"/>
<path d="M1161 347 c-7 -31 -11 -91 -10 -132 3 -57 0 -78 -11 -85 -8 -5 -14
-26 -15 -51 0 -23 -5 -44 -10 -46 -7 -2 -10 25 -8 72 2 80 -10 101 -21 36 -4
-30 -18 -51 -58 -90 l-53 -51 235 0 c208 1 233 2 215 15 -157 114 -205 175
-226 288 -19 101 -24 107 -38 44z"/>
<path d="M1786 391 c-4 -6 -4 -11 1 -11 4 0 1 -5 -7 -10 -8 -5 -10 -10 -5 -10
6 0 17 5 25 10 11 7 12 12 4 20 -9 9 -14 9 -18 1z"/>
<path d="M1375 370 c-3 -5 -1 -10 4 -10 6 0 11 5 11 10 0 6 -2 10 -4 10 -3 0
-8 -4 -11 -10z"/>
<path d="M2961 214 c9 -9 25 -14 35 -12 14 3 10 7 -16 16 -32 12 -34 11 -19
-4z"/>
<path d="M978 183 c-10 -2 -18 -9 -18 -14 0 -5 -7 -9 -15 -9 -8 0 -15 -4 -15
-9 0 -4 -18 -11 -40 -14 -49 -6 -78 -26 -58 -38 10 -7 8 -9 -5 -9 -10 0 -16
-4 -13 -9 4 -5 -8 -12 -26 -16 -60 -12 -65 -15 -64 -38 1 -21 6 -22 84 -25 64
-2 86 1 98 13 8 8 13 19 10 24 -3 5 4 20 15 35 11 14 18 26 14 26 -3 0 5 15
18 33 25 34 40 58 35 56 -2 -1 -11 -3 -20 -6z"/>
<path d="M975 106 c-16 -13 -27 -27 -23 -31 9 -10 58 25 58 41 0 18 0 18 -35
-10z"/>
<path d="M1692 114 c-8 -9 -9 -14 -2 -14 6 0 8 -4 5 -10 -3 -5 -2 -10 4 -10 5
0 13 5 16 10 3 6 0 10 -7 10 -10 0 -10 2 1 9 7 5 9 11 5 14 -5 3 -15 -1 -22
-9z"/>
<path d="M1905 70 c3 -5 8 -10 11 -10 2 0 4 5 4 10 0 6 -5 10 -11 10 -5 0 -7
-4 -4 -10z"/>
<path d="M3419 75 c-4 -3 -28 -7 -55 -9 -27 -2 -48 -8 -47 -14 1 -5 -7 -8 -20
-5 -21 5 -21 5 -4 -9 17 -13 17 -14 -4 -15 -12 -1 -27 -7 -33 -13 -8 -8 15
-10 89 -7 110 6 125 8 125 16 0 12 -46 62 -51 56z"/>
<path d="M3450 76 c0 -2 7 -6 15 -10 8 -3 15 -1 15 4 0 6 -7 10 -15 10 -8 0
-15 -2 -15 -4z"/>
<path d="M942 31 c-11 -7 -11 -9 1 -14 16 -6 27 0 27 15 0 10 -11 10 -28 -1z"/>
<path d="M3620 20 c0 -5 5 -10 10 -10 6 0 10 5 10 10 0 6 -4 10 -10 10 -5 0
-10 -4 -10 -10z"/>
<path d="M3185 10 c-3 -5 3 -10 15 -10 12 0 18 5 15 10 -3 6 -10 10 -15 10 -5
0 -12 -4 -15 -10z"/>
<path d="M918 3 c7 -3 16 -2 19 1 4 3 -2 6 -13 5 -11 0 -14 -3 -6 -6z"/>
</g>
</svg>
